<?xml version="1.0" encoding="UTF-8"?>
<svg version="1.1" viewBox="0 0 2048 2048" width="2051" height="2051" xmlns="http://www.w3.org/2000/svg">
<path transform="translate(14,2)" d="m0 0h2034v2045h-2034z" fill="#EBECCA"/>
<path transform="translate(1287,784)" d="m0 0 41 1 40 4 40 7 31 9 24 8 26 11 25 13 19 12 20 14 14 11v2l4 2 2 2-1 4-14 19-6 8-8 11-5 6-14 19-12 15-10 14-8 9-7-4-12-8-10-7-11-7-10-6-18-10-26-12-28-10-21-5-21-4-19-2-18-1h-11l-27 2-22 4-21 6-18 8-14 9-4 2v2l-5 5-7 9-7 14-3 12-1 9v14l3 14 6 14 9 10 5 5 15 10 17 8 16 6 37 10 39 9 49 11 40 10 29 9 20 6 25 10 25 12 15 9 15 10 14 11 8 7 7 8 7 7 13 19 8 14 8 19 6 21 4 21 2 21v26l-2 23-4 20-6 20-7 18-10 19-8 12-7 9-9 12h-2l-2 4-8 7-5 5-7 6-9 7-12 8-4 3-8 4-12 7-28 12-18 6-22 6-26 5-22 3-27 2h-61l-43-4-26-4-28-6-30-8-22-8-25-10-19-9-22-12-12-7-13-8-2-1v-2l-5-2-8-6-9-7-12-9v-2l-4-2-3-2v-2l-4-2-8-8 1-4 7-9 9-10 8-10 9-10 9-11 11-12 9-11 9-10 7-9 7-7 4 1 16 13 14 11 18 13 14 9 22 12 16 8 25 10 29 9 27 6 21 3 11 1h50l26-3 21-5 21-8 15-8 13-11 7-8 6-10 5-10 3-12 1-7v-21l-2-12-4-12-7-11-10-11-13-10-23-12-25-9-22-7-36-9-42-9-46-11-24-7-19-5-28-10-24-10-19-9-16-10-10-7-10-8-10-9-13-13-8-11-8-13-8-15-7-21-5-25-2-18v-29l4-31 6-23 6-16 9-19 9-14 8-11 11-12 7-8 11-10 14-11 21-14 20-11 27-11 26-8 26-6 28-4 23-2z" fill="#C55524"/>
<path transform="translate(1084,515)" d="m0 0h7l1 1v120l-1 1-445 1-1 205h346l1 2-9 15-16 25-10 16-10 15-9 14-10 15-10 16-2 4-4 1h-267v302l-19 1h-125l-2-1v-752z" fill="#6A6B2A"/>
</svg>
